<svg width="1084" height="216" viewBox="0 0 1084 216" fill="none" xmlns="http://www.w3.org/2000/svg">
<g filter="url(#filter0_d)">
<path d="M38.7886 205.576L4.77551 92.5765C4.38915 91.2928 5.3502 90 6.69069 90H1077.03C1078.83 90 1079.71 92.1949 1078.41 93.4426L960.73 206.443C960.358 206.8 959.862 207 959.345 207H40.7037C39.8212 207 39.0429 206.422 38.7886 205.576Z" fill="#2C4E11"/>
<path d="M38.7886 205.576L4.77551 92.5765C4.38915 91.2928 5.3502 90 6.69069 90H1077.03C1078.83 90 1079.71 92.1949 1078.41 93.4426L960.73 206.443C960.358 206.8 959.862 207 959.345 207H40.7037C39.8212 207 39.0429 206.422 38.7886 205.576Z" stroke="black"/>
</g>
<path d="M347.965 153.832H323.912V146.156H347.965V153.832ZM351.393 171H323.912C322.857 171 321.705 170.814 320.455 170.443C319.205 170.072 318.043 169.467 316.969 168.627C315.914 167.768 315.025 166.664 314.303 165.316C313.6 163.949 313.248 162.279 313.248 160.307V132.826C313.248 132.299 313.346 131.801 313.541 131.332C313.736 130.863 314 130.453 314.332 130.102C314.684 129.75 315.094 129.477 315.562 129.281C316.031 129.086 316.539 128.988 317.086 128.988H351.393V136.605H320.865V160.307C320.865 161.303 321.129 162.064 321.656 162.592C322.184 163.119 322.955 163.383 323.971 163.383H351.393V171ZM400.816 128.988L380.924 169.506C380.611 170.131 380.143 170.629 379.518 171C378.912 171.391 378.238 171.586 377.496 171.586C376.773 171.586 376.1 171.391 375.475 171C374.869 170.629 374.4 170.131 374.068 169.506L354.205 128.988H362.73L377.496 159.252L392.32 128.988H400.816ZM439.664 153.832H415.611V146.156H439.664V153.832ZM443.092 171H415.611C414.557 171 413.404 170.814 412.154 170.443C410.904 170.072 409.742 169.467 408.668 168.627C407.613 167.768 406.725 166.664 406.002 165.316C405.299 163.949 404.947 162.279 404.947 160.307V132.826C404.947 132.299 405.045 131.801 405.24 131.332C405.436 130.863 405.699 130.453 406.031 130.102C406.383 129.75 406.793 129.477 407.262 129.281C407.73 129.086 408.238 128.988 408.785 128.988H443.092V136.605H412.564V160.307C412.564 161.303 412.828 162.064 413.355 162.592C413.883 163.119 414.654 163.383 415.67 163.383H443.092V171ZM492.457 143.109C492.457 144.848 492.242 146.4 491.812 147.768C491.383 149.135 490.797 150.346 490.055 151.4C489.332 152.436 488.492 153.324 487.535 154.066C486.578 154.809 485.572 155.424 484.518 155.912C483.482 156.381 482.428 156.723 481.354 156.938C480.299 157.152 479.303 157.26 478.365 157.26L494.273 171H482.496L466.617 157.26H461.139V149.643H478.365C479.322 149.564 480.191 149.369 480.973 149.057C481.773 148.725 482.457 148.285 483.023 147.738C483.609 147.191 484.059 146.537 484.371 145.775C484.684 144.994 484.84 144.105 484.84 143.109V138.305C484.84 137.875 484.781 137.553 484.664 137.338C484.566 137.104 484.43 136.938 484.254 136.84C484.098 136.723 483.922 136.654 483.727 136.635C483.551 136.615 483.385 136.605 483.229 136.605H458.092V171H450.475V132.826C450.475 132.299 450.572 131.801 450.768 131.332C450.963 130.863 451.227 130.453 451.559 130.102C451.91 129.75 452.32 129.477 452.789 129.281C453.258 129.086 453.766 128.988 454.312 128.988H483.229C484.928 128.988 486.363 129.301 487.535 129.926C488.707 130.531 489.654 131.303 490.377 132.24C491.119 133.158 491.646 134.154 491.959 135.229C492.291 136.303 492.457 137.309 492.457 138.246V143.109ZM541.559 167.162C541.559 167.709 541.461 168.217 541.266 168.686C541.07 169.154 540.797 169.564 540.445 169.916C540.113 170.248 539.713 170.512 539.244 170.707C538.775 170.902 538.268 171 537.721 171H510.24C509.537 171 508.775 170.922 507.955 170.766C507.154 170.59 506.354 170.326 505.553 169.975C504.771 169.623 504.02 169.174 503.297 168.627C502.574 168.061 501.93 167.387 501.363 166.605C500.816 165.805 500.377 164.887 500.045 163.852C499.713 162.797 499.547 161.615 499.547 160.307V139.682C499.547 138.979 499.625 138.227 499.781 137.426C499.957 136.605 500.221 135.805 500.572 135.023C500.924 134.223 501.383 133.461 501.949 132.738C502.516 132.016 503.189 131.381 503.971 130.834C504.771 130.268 505.689 129.818 506.725 129.486C507.76 129.154 508.932 128.988 510.24 128.988H541.207V136.605H510.24C509.244 136.605 508.482 136.869 507.955 137.396C507.428 137.924 507.164 138.705 507.164 139.74V160.307C507.164 161.283 507.428 162.045 507.955 162.592C508.502 163.119 509.264 163.383 510.24 163.383H533.941V153.832H513.668V146.156H537.721C538.268 146.156 538.775 146.264 539.244 146.479C539.713 146.674 540.113 146.947 540.445 147.299C540.797 147.65 541.07 148.061 541.266 148.529C541.461 148.979 541.559 149.467 541.559 149.994V167.162ZM591.48 143.109C591.48 144.848 591.266 146.4 590.836 147.768C590.406 149.135 589.82 150.346 589.078 151.4C588.355 152.436 587.516 153.324 586.559 154.066C585.602 154.809 584.596 155.424 583.541 155.912C582.506 156.381 581.451 156.723 580.377 156.938C579.322 157.152 578.326 157.26 577.389 157.26L593.297 171H581.52L565.641 157.26H560.162V149.643H577.389C578.346 149.564 579.215 149.369 579.996 149.057C580.797 148.725 581.48 148.285 582.047 147.738C582.633 147.191 583.082 146.537 583.395 145.775C583.707 144.994 583.863 144.105 583.863 143.109V138.305C583.863 137.875 583.805 137.553 583.688 137.338C583.59 137.104 583.453 136.938 583.277 136.84C583.121 136.723 582.945 136.654 582.75 136.635C582.574 136.615 582.408 136.605 582.252 136.605H557.115V171H549.498V132.826C549.498 132.299 549.596 131.801 549.791 131.332C549.986 130.863 550.25 130.453 550.582 130.102C550.934 129.75 551.344 129.477 551.812 129.281C552.281 129.086 552.789 128.988 553.336 128.988H582.252C583.951 128.988 585.387 129.301 586.559 129.926C587.73 130.531 588.678 131.303 589.4 132.24C590.143 133.158 590.67 134.154 590.982 135.229C591.314 136.303 591.48 137.309 591.48 138.246V143.109ZM633.668 153.832H609.615V146.156H633.668V153.832ZM637.096 171H609.615C608.561 171 607.408 170.814 606.158 170.443C604.908 170.072 603.746 169.467 602.672 168.627C601.617 167.768 600.729 166.664 600.006 165.316C599.303 163.949 598.951 162.279 598.951 160.307V132.826C598.951 132.299 599.049 131.801 599.244 131.332C599.439 130.863 599.703 130.453 600.035 130.102C600.387 129.75 600.797 129.477 601.266 129.281C601.734 129.086 602.242 128.988 602.789 128.988H637.096V136.605H606.568V160.307C606.568 161.303 606.832 162.064 607.359 162.592C607.887 163.119 608.658 163.383 609.674 163.383H637.096V171ZM679.02 153.832H654.967V146.156H679.02V153.832ZM682.447 171H654.967C653.912 171 652.76 170.814 651.51 170.443C650.26 170.072 649.098 169.467 648.023 168.627C646.969 167.768 646.08 166.664 645.357 165.316C644.654 163.949 644.303 162.279 644.303 160.307V132.826C644.303 132.299 644.4 131.801 644.596 131.332C644.791 130.863 645.055 130.453 645.387 130.102C645.738 129.75 646.148 129.477 646.617 129.281C647.086 129.086 647.594 128.988 648.141 128.988H682.447V136.605H651.92V160.307C651.92 161.303 652.184 162.064 652.711 162.592C653.238 163.119 654.01 163.383 655.025 163.383H682.447V171ZM731.812 167.748C731.812 168.295 731.705 168.803 731.49 169.271C731.295 169.74 731.021 170.15 730.67 170.502C730.338 170.834 729.938 171.098 729.469 171.293C729 171.488 728.502 171.586 727.975 171.586C727.506 171.586 727.027 171.498 726.539 171.322C726.07 171.146 725.65 170.863 725.279 170.473L697.447 141.41V171H689.83V132.24C689.83 131.459 690.045 130.756 690.475 130.131C690.924 129.486 691.49 129.008 692.174 128.695C692.896 128.402 693.639 128.334 694.4 128.49C695.162 128.627 695.816 128.979 696.363 129.545L724.195 158.578V128.988H731.812V167.748Z" fill="white"/>
<rect x="68" y="60" width="25" height="30" fill="#DA6A33"/>
<rect x="93" y="60" width="25" height="30" fill="#860808"/>
<rect x="118" y="60" width="25" height="30" fill="#00C49F"/>
<rect x="143" y="60" width="25" height="30" fill="#3F51B5"/>
<rect x="168" y="60" width="25" height="30" fill="#1890FF"/>
<rect x="193" y="60" width="25" height="30" fill="#BF21D9"/>
<rect x="218" y="60" width="25" height="30" fill="#DA6A33"/>
<rect x="243" y="60" width="25" height="30" fill="#F8CC46"/>
<rect x="268" y="60" width="25" height="30" fill="#54C5AF"/>
<rect x="293" y="60" width="25" height="30" fill="#1890FF"/>
<rect x="318" y="60" width="25" height="30" fill="#860808"/>
<rect x="343" y="60" width="25" height="30" fill="#00C49F"/>
<rect x="368" y="60" width="25" height="30" fill="#DA6A33"/>
<rect x="393" y="60" width="25" height="30" fill="#860808"/>
<rect x="418" y="60" width="25" height="30" fill="#DA6A33"/>
<rect x="443" y="60" width="25" height="30" fill="#F8CC46"/>
<rect x="468" y="60" width="25" height="30" fill="#3F51B5"/>
<rect x="493" y="60" width="25" height="30" fill="#DA6A33"/>
<rect x="518" y="60" width="25" height="30" fill="#1890FF"/>
<rect x="543" y="60" width="25" height="30" fill="#DA6A33"/>
<rect x="568" y="60" width="25" height="30" fill="#F8CC46"/>
<rect x="593" y="60" width="25" height="30" fill="#DA6A33"/>
<rect x="618" y="60" width="25" height="30" fill="#1890FF"/>
<rect x="643" y="60" width="25" height="30" fill="#DA6A33"/>
<rect x="668" y="60" width="25" height="30" fill="#1890FF"/>
<rect x="693" y="60" width="25" height="30" fill="#F8CC46"/>
<rect x="718" y="60" width="25" height="30" fill="#DA6A33"/>
<rect x="743" y="60" width="25" height="30" fill="#BF21D9"/>
<rect x="768" y="60" width="25" height="30" fill="#DA6A33"/>
<rect x="793" y="60" width="25" height="30" fill="#3F51B5"/>
<rect x="818" y="60" width="25" height="30" fill="#DA6A33"/>
<rect x="843" y="60" width="25" height="30" fill="#BF21D9"/>
<rect x="868" y="60" width="25" height="30" fill="#DA6A33"/>
<rect x="893" y="60" width="25" height="30" fill="#00C49F"/>
<rect x="918" y="60" width="25" height="30" fill="#DA6A33"/>
<rect x="943" y="60" width="25" height="30" fill="#860808"/>
<rect x="968" y="60" width="25" height="30" fill="#DA6A33"/>
<rect x="993" y="60" width="25" height="30" fill="#F8CC46"/>
<rect x="118" y="30" width="50" height="30" fill="#860808"/>
<rect x="168" y="30" width="50" height="30" fill="#00C49F"/>
<rect x="218" y="30" width="50" height="30" fill="#1E1BA4"/>
<rect x="268" y="30" width="50" height="30" fill="#DA6A33"/>
<rect x="68" y="30" width="50" height="30" fill="#00C49F"/>
<rect x="118" width="50" height="30" fill="#DA6A33"/>
<rect x="168" width="50" height="30" fill="#1890FF"/>
<rect x="218" width="50" height="30" fill="#00C49F"/>
<rect x="268" width="50" height="30" fill="#3F51B5"/>
<rect x="68" width="50" height="30" fill="#F8CC46"/>
<rect x="368" y="30" width="50" height="30" fill="#BF21D9"/>
<rect x="418" y="30" width="50" height="30" fill="#1890FF"/>
<rect x="468" y="30" width="50" height="30" fill="#00C49F"/>
<rect x="518" y="30" width="50" height="30" fill="#2C4E11"/>
<rect x="318" y="30" width="50" height="30" fill="#2C4E11"/>
<rect x="368" width="50" height="30" fill="#00C49F"/>
<rect x="418" width="50" height="30" fill="#3F51B5"/>
<rect x="468" width="50" height="30" fill="#219226"/>
<rect x="518" width="50" height="30" fill="#F8CC46"/>
<rect x="318" width="50" height="30" fill="#860808"/>
<rect x="618" width="50" height="30" fill="#1890FF"/>
<rect x="668" width="50" height="30" fill="#3F51B5"/>
<rect x="718" width="50" height="30" fill="#00C49F"/>
<rect x="768" width="50" height="30" fill="#FF8042"/>
<rect x="568" width="50" height="30" fill="#860808"/>
<rect x="618" y="30" width="50" height="30" fill="#860808"/>
<rect x="668" y="30" width="50" height="30" fill="#00C49F"/>
<rect x="718" y="30" width="50" height="30" fill="#F8CC46"/>
<rect x="768" y="30" width="50" height="30" fill="#1890FF"/>
<rect x="568" y="30" width="50" height="30" fill="#00C49F"/>
<rect x="868" width="50" height="30" fill="#00C49F"/>
<rect x="818" width="50" height="30" fill="#860808"/>
<rect x="868" y="30" width="50" height="30" fill="#2C4E11"/>
<rect x="918" y="30" width="50" height="30" fill="#00C49F"/>
<rect x="818" y="30" width="50" height="30" fill="#860808"/>
<defs>
<filter id="filter0_d" x="0.188965" y="89.5" width="1083.35" height="126" filterUnits="userSpaceOnUse" color-interpolation-filters="sRGB">
<feFlood flood-opacity="0" result="BackgroundImageFix"/>
<feColorMatrix in="SourceAlpha" type="matrix" values="0 0 0 0 0 0 0 0 0 0 0 0 0 0 0 0 0 0 127 0"/>
<feOffset dy="4"/>
<feGaussianBlur stdDeviation="2"/>
<feColorMatrix type="matrix" values="0 0 0 0 0 0 0 0 0 0 0 0 0 0 0 0 0 0 0.25 0"/>
<feBlend mode="normal" in2="BackgroundImageFix" result="effect1_dropShadow"/>
<feBlend mode="normal" in="SourceGraphic" in2="effect1_dropShadow" result="shape"/>
</filter>
</defs>
</svg>
