<?xml version="1.0" standalone="no"?>
<!DOCTYPE svg PUBLIC "-//W3C//DTD SVG 20010904//EN"
 "http://www.w3.org/TR/2001/REC-SVG-20010904/DTD/svg10.dtd">
<svg version="1.0" xmlns="http://www.w3.org/2000/svg"
 width="120.000000pt" height="120.000000pt" viewBox="0 0 120.000000 120.000000"
 preserveAspectRatio="xMidYMid meet">
<metadata>
Created by potrace 1.11, written by Peter Selinger 2001-2013
</metadata>
<g transform="translate(0.000000,120.000000) scale(0.100000,-0.100000)"
fill="#000000" stroke="none">
<path d="M773 1132 l-31 -3 2 -97 c3 -143 4 -141 -58 -137 -59 3 -72 -1 -56
-20 8 -10 7 -17 -3 -26 -9 -9 -12 -28 -9 -54 2 -26 -1 -47 -10 -56 -7 -8 -14
-32 -14 -54 -2 -47 -7 -76 -17 -92 -4 -6 -4 -18 -1 -27 4 -11 1 -16 -10 -16
-9 0 -16 8 -16 19 0 16 -6 19 -37 17 -27 -1 -39 -7 -41 -19 -5 -26 -24 -21
-69 18 -23 19 -46 35 -53 35 -7 0 -10 11 -8 27 l3 28 -130 0 c-159 0 -166 -1
-160 -29 2 -11 7 -43 10 -71 13 -123 60 -240 143 -362 90 -132 135 -157 302
-169 68 -5 545 -8 663 -5 l27 1 0 545 0 545 -78 0 -78 0 1 -117 0 -118 -55 0
c-65 0 -68 4 -60 86 3 32 3 59 0 59 -3 0 -5 19 -5 42 l0 43 -60 5 c-33 3 -74
4 -92 2z m-83 -272 c0 -14 -28 -19 -33 -5 -3 7 -3 15 0 18 7 7 33 -3 33 -13z
m54 -5 c-3 -7 -14 -11 -25 -8 -22 6 -25 19 -6 26 19 6 36 -3 31 -18z m213 8
c2 -6 -3 -13 -12 -16 -10 -5 -15 0 -15 14 0 21 21 22 27 2z m53 4 c0 -19 -10
-27 -26 -20 -11 4 -12 9 -3 19 15 18 29 18 29 1z m35 -7 c-3 -5 -11 -10 -16
-10 -6 0 -7 5 -4 10 3 6 11 10 16 10 6 0 7 -4 4 -10z m-935 -222 c0 -11 -5
-18 -12 -16 -19 7 -21 35 -3 35 8 0 15 -9 15 -19z m65 1 c0 -8 -10 -14 -21
-15 -18 -1 -24 12 -15 33 4 8 36 -7 36 -18z m79 5 c3 -7 -4 -16 -14 -19 -23
-7 -40 1 -40 18 0 17 48 18 54 1z m56 6 c16 -10 8 -23 -15 -26 -18 -3 -29 12
-20 26 8 12 16 12 35 0z"/>
</g>
</svg>
